<svg width="48" height="48" viewBox="0 0 48 48" fill="none" xmlns="http://www.w3.org/2000/svg">
<g clip-path="url(#clip0_211_820)">
<path fill-rule="evenodd" clip-rule="evenodd" d="M13.9858 14.1146L4 24C5.99734 25.9773 8.27899 27.6437 10.7666 28.9474C11.4542 30.753 12.532 32.4463 14 33.8995C19.5229 39.3668 28.4772 39.3668 34 33.8995C35.468 32.4463 36.5458 30.753 37.2334 28.9473C39.721 27.6437 42.0027 25.9773 44 24L34.0223 14.1227C34.0149 14.1153 34.0075 14.1079 34 14.1005C28.4772 8.63317 19.5229 8.63317 14 14.1005C13.9953 14.1052 13.9905 14.1099 13.9858 14.1146ZM33.0445 30.7309C30.1345 31.7031 27.0797 32.201 24 32.201C20.9203 32.201 17.8656 31.7031 14.9556 30.7309C15.2709 31.145 15.619 31.5424 16 31.9196C20.4183 36.2935 27.5817 36.2935 32 31.9196C32.381 31.5424 32.7292 31.145 33.0445 30.7309ZM16.2051 15.8824C16.9554 16.3731 17.7532 16.793 18.588 17.1354C20.3038 17.8389 22.1428 18.201 24 18.201C25.8572 18.201 27.6962 17.8389 29.412 17.1354C30.2468 16.793 31.0446 16.3731 31.795 15.8824C27.4318 11.7725 20.5682 11.7725 16.2051 15.8824Z" fill="#3B4158"/>
</g>
<defs>
<clipPath id="clip0_211_820">
<rect width="40" height="28" fill="white" transform="translate(4 9.8468)"/>
</clipPath>
</defs>
</svg>
