<svg width="48" height="48" viewBox="0 0 48 48" fill="none" xmlns="http://www.w3.org/2000/svg">
<path d="M24.7327 18.3939L24.7324 23.4168V23.4168V23.4752C24.7324 23.5917 24.7475 23.7048 24.7757 23.8125L24.7279 24.6302L24.7253 24.6742C24.7141 24.8659 24.6394 25.0335 24.5133 25.1598L25.9559 24.2149C25.8736 24.2014 25.7915 24.1722 25.7097 24.1276L25.3135 23.9119V23.4752V23.4168V18.3939M24.7327 18.3939V18.3938L25.0231 18.3938L25.3135 18.3939M24.7327 18.3939C24.7327 18.5543 24.8629 18.6843 25.0231 18.6843C25.1835 18.6843 25.3135 18.554 25.3135 18.3939M24.7327 18.3939H25.0231H25.3135M19.1124 17.9449L19.1124 17.9449L19.1124 17.9449ZM19.1124 17.9449C18.8994 18.3159 18.3877 18.4545 18.014 18.2398L19.1124 17.9449ZM17.6813 18.8176L17.6807 18.8172C17.4063 18.6588 17.2085 18.3994 17.1267 18.0953L17.1265 18.0949L17.1265 18.0948L17.1261 18.0932C17.0595 17.8427 17.0764 17.5806 17.1722 17.3432V17.1486C17.0014 17.4436 16.9556 17.7878 17.044 18.1169C17.1319 18.4459 17.3432 18.7208 17.6386 18.8921L17.6813 18.8176ZM24.9248 25.5709L24.9849 25.631L24.9248 25.571L24.9241 25.5716C24.6733 25.8219 24.3368 25.9601 23.9836 25.9601C23.9836 25.9601 23.9836 25.9601 23.9836 25.9601C23.5034 25.9601 23.0823 25.7049 22.8485 25.3229C22.8245 25.3352 22.8002 25.3471 22.7756 25.3586L24.9248 25.5709ZM17.7486 17.4835C17.6668 17.6252 17.6457 17.7867 17.6878 17.944C17.6878 17.944 17.6879 17.944 17.6879 17.9441L17.6879 17.9442L17.6881 17.9448C17.7298 18.1012 17.8283 18.2308 17.9711 18.3142C17.9711 18.3142 17.9712 18.3143 17.9712 18.3143L17.7486 17.4835Z" fill="#4CAF4F" stroke="#4CAF4F" stroke-width="1.33333"/>
<path d="M16.1252 30.7918C15.9467 30.8993 15.7158 30.8413 15.6091 30.663C15.5021 30.4849 15.5601 30.2537 15.7379 30.1468L16.1252 30.7918ZM11.7469 26.4271C11.7615 26.4007 11.7752 26.3761 11.7879 26.3532C11.8391 26.2609 11.8738 26.1984 11.8878 26.1733L11.9636 26.2132C11.9167 26.2976 11.8708 26.3803 11.8257 26.4615C11.7993 26.4516 11.773 26.4402 11.7469 26.4271ZM22.1554 28.7211C22.3076 28.6297 22.415 28.4851 22.4579 28.3133C22.5007 28.1418 22.4741 27.9635 22.3829 27.8113L22.1554 28.7211Z" fill="#4CAF4F" stroke="#4CAF4F" stroke-width="1.33333"/>
<path d="M27.8527 28.0933C27.7587 28.035 27.6732 27.966 27.5976 27.888L26.8782 27.5117L26.8782 27.5116L26.8381 27.4907C26.7243 27.4311 26.6083 27.4029 26.4965 27.4026L27.8527 28.0933ZM26.1717 26.862C26.1718 26.862 26.1719 26.8619 26.1721 26.8619L26.2275 27.0842L26.2275 27.0842L26.3126 27.4256L26.3125 27.4256L26.1717 26.862ZM30.3872 33.7857C30.387 33.7856 30.3869 33.7855 30.3867 33.7854L30.3872 33.7857ZM25.845 30.1872L25.8464 30.188L25.845 30.1872Z" fill="#4CAF4F" stroke="#4CAF4F" stroke-width="1.33333"/>
</svg>
