<svg width="48" height="49" viewBox="0 0 48 49" fill="none" xmlns="http://www.w3.org/2000/svg">
<rect y="0.399048" width="48" height="48" rx="8" fill="#E8F5E9"/>
<g clip-path="url(#clip0_22_772)">
<path fill-rule="evenodd" clip-rule="evenodd" d="M10 1C15.5228 1 20 5.47715 20 11V1H30C35.5228 1 40 5.47715 40 11C40 16.5228 35.5228 21 30 21C35.5228 21 40 25.4772 40 31C40 33.7423 38.8961 36.2268 37.1085 38.0334L37.0711 38.0711L37.0379 38.1041C35.2309 39.8943 32.7446 41 30 41C27.2741 41 24.8029 39.9093 22.999 38.1405C22.9756 38.1175 22.9522 38.0943 22.9289 38.0711C22.907 38.0492 22.8852 38.0272 22.8635 38.0051C21.0924 36.2009 20 33.728 20 31C20 36.5228 15.5228 41 10 41C4.47715 41 0 36.5228 0 31V21H10C4.47715 21 0 16.5228 0 11C0 5.47715 4.47715 1 10 1ZM18 11C18 15.4183 14.4183 19 10 19V3C14.4183 3 18 6.58172 18 11ZM38 31C38 26.5817 34.4183 23 30 23C25.5817 23 22 26.5817 22 31H38ZM2 23V31C2 35.4183 5.58172 39 10 39C14.4183 39 18 35.4183 18 31V23H2ZM22 19V3H30C34.4183 3 38 6.58172 38 11C38 15.4183 34.4183 19 30 19H22Z" fill="#5417D7"/>
</g>
<defs>
<clipPath id="clip0_22_772">
<rect width="40" height="40" fill="white" transform="translate(0.353333 0.593567)"/>
</clipPath>
</defs>
</svg>
